<?xml version="1.0" standalone="no"?>
<!DOCTYPE svg PUBLIC "-//W3C//DTD SVG 20010904//EN"
 "http://www.w3.org/TR/2001/REC-SVG-20010904/DTD/svg10.dtd">
<svg version="1.0" xmlns="http://www.w3.org/2000/svg"
 width="300.000000pt" height="300.000000pt" viewBox="0 0 300.000000 300.000000"
 preserveAspectRatio="xMidYMid meet">
<metadata>
Created by potrace 1.11, written by Peter Selinger 2001-2013
</metadata>
<g transform="translate(0.000000,300.000000) scale(0.100000,-0.100000)"
fill="#000000" stroke="none">
<path d="M1347 2495 c-150 -51 -267 -220 -273 -390 -1 -33 4 -75 12 -93 13
-31 12 -34 -18 -62 -64 -62 -127 -182 -143 -275 -9 -56 -16 -216 -9 -227 3 -5
7 -35 9 -66 4 -61 23 -159 56 -287 31 -124 36 -144 58 -237 18 -77 25 -92 57
-120 75 -66 133 -130 136 -151 3 -21 8 -22 98 -23 128 -1 170 -6 170 -19 0 -6
-22 -21 -49 -34 -43 -20 -151 -118 -151 -136 0 -4 -8 -17 -17 -28 -15 -19 -29
-22 -90 -23 -114 -2 -184 -47 -222 -141 -7 -18 -11 -42 -8 -53 3 -11 2 -20 -3
-20 -10 0 8 -80 22 -97 8 -10 132 -13 604 -13 369 0 594 4 594 10 0 5 -21 39
-46 75 -41 58 -43 65 -25 65 12 0 31 -6 43 -12 22 -14 70 -58 62 -58 -2 0 1
-10 8 -22 7 -13 11 -31 9 -40 -2 -16 8 -18 88 -18 l91 0 -5 47 c-12 115 -114
248 -207 269 -41 10 -132 11 -172 2 -34 -8 -40 -6 -54 14 -48 72 -205 188
-255 188 -28 0 -44 28 -45 75 -1 25 -4 50 -6 54 -7 10 67 61 88 61 8 0 16 4
18 9 2 5 41 27 88 48 l85 40 -2 64 c-1 35 -5 84 -8 109 -15 132 -18 185 -20
409 -2 135 -6 272 -9 306 -12 127 -60 240 -137 320 -51 53 -151 111 -170 99
-8 -5 -9 -3 -3 7 13 22 16 38 16 129 1 87 -17 144 -61 194 -43 49 -140 73
-204 51z m-157 -2319 c0 -3 -12 -37 -26 -76 -26 -70 -27 -71 -40 -44 -20 38
-17 81 6 104 17 17 60 28 60 16z"/>
</g>
</svg>
